<svg width="24" height="23" viewBox="0 0 24 23" fill="none" xmlns="http://www.w3.org/2000/svg">
<path fill-rule="evenodd" clip-rule="evenodd" d="M11.5801 0.10083C10.522 0.10083 9.48424 0.390736 8.57939 0.939059L2.78935 4.44782C1.93791 4.96378 1.23388 5.69057 0.745277 6.55799C0.256672 7.42541 -1.65646e-05 8.40417 8.01486e-10 9.39973V16.6859C8.01486e-10 18.2215 0.61002 19.6942 1.69586 20.7801C2.7817 21.8659 4.25442 22.476 5.79004 22.476H17.3701C18.9057 22.476 20.3784 21.8659 21.4643 20.7801C22.5501 19.6942 23.1602 18.2215 23.1602 16.6859V9.39857C23.1599 8.40324 22.9031 7.42451 22.4145 6.55736C21.9259 5.69021 21.222 4.96366 20.3708 4.44783L14.5808 0.939068C13.6759 0.390745 12.6381 0.10083 11.5801 0.10083ZM9.77968 2.91977C10.3226 2.59079 10.9453 2.41685 11.5801 2.41685C12.2149 2.41685 12.8376 2.59079 13.3805 2.91977L19.1705 6.42854C19.6812 6.73804 20.1036 7.17398 20.3968 7.69427C20.6899 8.21448 20.844 8.80147 20.8441 9.39857V16.6859C20.8441 17.6073 20.4781 18.4909 19.8266 19.1424C19.1751 19.7939 18.2915 20.1599 17.3701 20.1599H16.2121V16.6859C16.2121 15.4574 15.7241 14.2793 14.8554 13.4106C13.9867 12.5419 12.8086 12.0539 11.5801 12.0539C10.3516 12.0539 9.17341 12.5419 8.30474 13.4106C7.43606 14.2793 6.94804 15.4574 6.94804 16.6859V20.1599H5.79004C4.86867 20.1599 3.98504 19.7939 3.33353 19.1424C2.68203 18.4909 2.31602 17.6073 2.31602 16.6859V9.39973C2.316 8.80239 2.47002 8.21511 2.76318 7.69465C3.05635 7.17419 3.47876 6.73812 3.98963 6.42855L9.77968 2.91977ZM13.2177 15.0482C13.6521 15.4826 13.8961 16.0717 13.8961 16.6859V20.1599H9.26406V16.6859C9.26406 16.0717 9.50807 15.4826 9.9424 15.0482C10.3767 14.6139 10.9658 14.3699 11.5801 14.3699C12.1943 14.3699 12.7834 14.6139 13.2177 15.0482Z" fill="white"/>
</svg>
