<svg width="19" height="26" viewBox="0 0 19 26" fill="none" xmlns="http://www.w3.org/2000/svg">
<path d="M19 24.6992L19 1.29856C18.9993 1.06163 18.9355 0.829403 18.8155 0.626858C18.6956 0.424311 18.5239 0.259121 18.3191 0.149069C18.1144 0.039015 17.8842 -0.0117338 17.6533 0.00228521C17.4225 0.0163023 17.1997 0.094557 17.009 0.228625L0.512965 11.929C-0.170988 12.4139 -0.170988 13.5813 0.512965 14.0675L17.009 25.7678C17.1993 25.9033 17.4222 25.9827 17.6534 25.9975C17.8846 26.0123 18.1154 25.9618 18.3206 25.8517C18.5258 25.7415 18.6977 25.5759 18.8175 25.3727C18.9372 25.1695 19.0004 24.9366 19 24.6992Z" fill="#031C30"/>
</svg>
