<svg width="22" height="22" viewBox="0 0 22 22" fill="none" xmlns="http://www.w3.org/2000/svg">
<path d="M17.49 16.929C17.204 16.049 16.379 15.4 15.4 15.4H14.3V12.1C14.3 11.8083 14.1841 11.5285 13.9778 11.3222C13.7715 11.1159 13.4917 11 13.2 11H6.6V8.8H8.8C9.09174 8.8 9.37153 8.68411 9.57782 8.47782C9.78411 8.27153 9.9 7.99174 9.9 7.7V5.5H12.1C12.6835 5.5 13.2431 5.26822 13.6556 4.85564C14.0682 4.44306 14.3 3.88348 14.3 3.3V2.849C15.6161 3.3796 16.7841 4.22122 17.7039 5.30182C18.6237 6.38241 19.2679 7.6698 19.5815 9.05378C19.895 10.4378 19.8686 11.8771 19.5043 13.2486C19.1401 14.6201 18.4489 15.883 17.49 16.929ZM9.9 19.723C5.555 19.184 2.2 15.488 2.2 11C2.2 10.318 2.288 9.658 2.431 9.031L7.7 14.3V15.4C7.7 15.9835 7.93179 16.5431 8.34437 16.9556C8.75695 17.3682 9.31652 17.6 9.9 17.6M11 0C9.55546 0 8.12506 0.284523 6.79048 0.837325C5.4559 1.39013 4.24327 2.20038 3.22183 3.22183C1.15893 5.28473 0 8.08262 0 11C0 13.9174 1.15893 16.7153 3.22183 18.7782C4.24327 19.7996 5.4559 20.6099 6.79048 21.1627C8.12506 21.7155 9.55546 22 11 22C13.9174 22 16.7153 20.8411 18.7782 18.7782C20.8411 16.7153 22 13.9174 22 11C22 9.55546 21.7155 8.12506 21.1627 6.79048C20.6099 5.4559 19.7996 4.24327 18.7782 3.22183C17.7567 2.20038 16.5441 1.39013 15.2095 0.837325C13.8749 0.284523 12.4445 0 11 0Z" fill="white"/>
</svg>
