<svg width="29" height="29" viewBox="0 0 29 29" fill="none" xmlns="http://www.w3.org/2000/svg">
<path d="M25.3682 17.8061C24.5571 19.9854 24.6057 22.5895 26.2501 24.2335L28.465 26.4479C29.0228 27.0056 29.0229 27.91 28.4651 28.4678V28.4678C27.9073 29.0256 27.0029 29.0255 26.4452 28.4676L24.2308 26.2528C22.5868 24.6084 19.9827 24.5598 17.8034 25.3709C16.3802 25.9007 14.8638 26.1765 13.3234 26.1743C6.23113 26.1743 0.475098 20.4183 0.475098 13.3261C0.475098 6.23381 6.23113 0.477783 13.3234 0.477783C20.4156 0.477783 26.1717 6.23381 26.1717 13.3261C26.1739 14.8665 25.898 16.3829 25.3682 17.8061ZM20.497 20.2856C22.3088 18.4224 23.3206 15.9249 23.3165 13.3261C23.3165 7.80559 18.8439 3.33296 13.3234 3.33296C7.8029 3.33296 3.33027 7.80559 3.33027 13.3261C3.33027 18.8465 7.8029 23.3192 13.3234 23.3192C15.9222 23.3233 18.4197 22.3115 20.2829 20.4997L20.497 20.2856Z" fill="black"/>
</svg>
