<svg width="19" height="26" viewBox="0 0 19 26" fill="none" xmlns="http://www.w3.org/2000/svg">
<path d="M3.75784e-06 1.30078L2.73496e-06 24.7014C0.000727517 24.9384 0.0645073 25.1706 0.184476 25.3731C0.304446 25.5757 0.47606 25.7409 0.68085 25.8509C0.885638 25.961 1.11585 26.0117 1.3467 25.9977C1.57754 25.9837 1.80029 25.9054 1.99095 25.7714L18.487 14.071C19.171 13.5861 19.171 12.4187 18.487 11.9325L1.99095 0.232152C1.80069 0.0967202 1.57783 0.0173 1.3466 0.0025199C1.11537 -0.0122602 0.884602 0.0381652 0.679379 0.148317C0.474155 0.25847 0.30232 0.424136 0.182547 0.627316C0.0627708 0.830497 -0.000362443 1.06342 3.75784e-06 1.30078Z" fill="#031C30"/>
</svg>
