<svg width="109" height="103" viewBox="0 0 109 103" fill="none" xmlns="http://www.w3.org/2000/svg">
<g filter="url(#filter0_di_17_725)">
<circle cx="45.1784" cy="33.7857" r="23.25" fill="#FBCA1C"/>
<circle cx="45.1784" cy="33.7857" r="23.25" fill="url(#paint0_radial_17_725)" fill-opacity="0.2"/>
</g>
<g filter="url(#filter1_di_17_725)">
<path d="M90.5394 48.1786C90.5606 47.8122 90.5714 47.4431 90.5714 47.0714C90.5714 36.6767 82.1448 28.25 71.75 28.25C66.748 28.25 62.2018 30.2012 58.8309 33.384C57.1258 32.924 55.3327 32.6786 53.4821 32.6786C46.789 32.6786 40.8458 35.889 37.1081 40.8538C35.9688 40.5759 34.7784 40.4286 33.5536 40.4286C25.2989 40.4286 18.6072 47.1203 18.6072 55.375C18.6072 55.4135 18.6073 55.452 18.6076 55.4904C18.6073 55.5174 18.6072 55.5443 18.6072 55.5714C18.6072 65.552 26.698 73.6428 36.6786 73.6428H65.1071C79.1707 73.6428 90.5714 62.2421 90.5714 48.1786H90.5394Z" fill="white"/>
<path d="M90.5394 48.1786C90.5606 47.8122 90.5714 47.4431 90.5714 47.0714C90.5714 36.6767 82.1448 28.25 71.75 28.25C66.748 28.25 62.2018 30.2012 58.8309 33.384C57.1258 32.924 55.3327 32.6786 53.4821 32.6786C46.789 32.6786 40.8458 35.889 37.1081 40.8538C35.9688 40.5759 34.7784 40.4286 33.5536 40.4286C25.2989 40.4286 18.6072 47.1203 18.6072 55.375C18.6072 55.4135 18.6073 55.452 18.6076 55.4904C18.6073 55.5174 18.6072 55.5443 18.6072 55.5714C18.6072 65.552 26.698 73.6428 36.6786 73.6428H65.1071C79.1707 73.6428 90.5714 62.2421 90.5714 48.1786H90.5394Z" fill="url(#paint1_radial_17_725)" fill-opacity="0.2"/>
</g>
<defs>
<filter id="filter0_di_17_725" x="13.0713" y="1.67858" width="64.2143" height="64.2142" filterUnits="userSpaceOnUse" color-interpolation-filters="sRGB">
<feFlood flood-opacity="0" result="BackgroundImageFix"/>
<feColorMatrix in="SourceAlpha" type="matrix" values="0 0 0 0 0 0 0 0 0 0 0 0 0 0 0 0 0 0 127 0" result="hardAlpha"/>
<feMorphology radius="3.32142" operator="dilate" in="SourceAlpha" result="effect1_dropShadow_17_725"/>
<feOffset/>
<feGaussianBlur stdDeviation="2.76785"/>
<feComposite in2="hardAlpha" operator="out"/>
<feColorMatrix type="matrix" values="0 0 0 0 0.984314 0 0 0 0 0.792157 0 0 0 0 0.109804 0 0 0 0.2 0"/>
<feBlend mode="normal" in2="BackgroundImageFix" result="effect1_dropShadow_17_725"/>
<feBlend mode="normal" in="SourceGraphic" in2="effect1_dropShadow_17_725" result="shape"/>
<feColorMatrix in="SourceAlpha" type="matrix" values="0 0 0 0 0 0 0 0 0 0 0 0 0 0 0 0 0 0 127 0" result="hardAlpha"/>
<feOffset/>
<feGaussianBlur stdDeviation="4.98214"/>
<feComposite in2="hardAlpha" operator="arithmetic" k2="-1" k3="1"/>
<feColorMatrix type="matrix" values="0 0 0 0 0.984314 0 0 0 0 0.529569 0 0 0 0 0.109804 0 0 0 0.5 0"/>
<feBlend mode="normal" in2="shape" result="effect2_innerShadow_17_725"/>
</filter>
<filter id="filter1_di_17_725" x="0.892912" y="21.6072" width="107.393" height="80.8213" filterUnits="userSpaceOnUse" color-interpolation-filters="sRGB">
<feFlood flood-opacity="0" result="BackgroundImageFix"/>
<feColorMatrix in="SourceAlpha" type="matrix" values="0 0 0 0 0 0 0 0 0 0 0 0 0 0 0 0 0 0 127 0" result="hardAlpha"/>
<feOffset dy="11.0714"/>
<feGaussianBlur stdDeviation="8.85713"/>
<feComposite in2="hardAlpha" operator="out"/>
<feColorMatrix type="matrix" values="0 0 0 0 0.301961 0 0 0 0 0.368627 0 0 0 0 0.435294 0 0 0 0.08 0"/>
<feBlend mode="normal" in2="BackgroundImageFix" result="effect1_dropShadow_17_725"/>
<feBlend mode="normal" in="SourceGraphic" in2="effect1_dropShadow_17_725" result="shape"/>
<feColorMatrix in="SourceAlpha" type="matrix" values="0 0 0 0 0 0 0 0 0 0 0 0 0 0 0 0 0 0 127 0" result="hardAlpha"/>
<feOffset/>
<feGaussianBlur stdDeviation="3.32142"/>
<feComposite in2="hardAlpha" operator="arithmetic" k2="-1" k3="1"/>
<feColorMatrix type="matrix" values="0 0 0 0 0.301961 0 0 0 0 0.368627 0 0 0 0 0.435294 0 0 0 0.08 0"/>
<feBlend mode="normal" in2="shape" result="effect2_innerShadow_17_725"/>
</filter>
<radialGradient id="paint0_radial_17_725" cx="0" cy="0" r="1" gradientUnits="userSpaceOnUse" gradientTransform="translate(39.6427 24.9286) rotate(50.7106) scale(31.4709 21.9854)">
<stop stop-color="#FBCA1C"/>
<stop offset="1" stop-color="#E4750E"/>
</radialGradient>
<radialGradient id="paint1_radial_17_725" cx="0" cy="0" r="1" gradientUnits="userSpaceOnUse" gradientTransform="translate(68.9821 32.6786) rotate(121.827) scale(56.6836 89.8642)">
<stop stop-opacity="0"/>
<stop offset="1" stop-color="#4D5E6F"/>
</radialGradient>
</defs>
</svg>
